# xmcd
#
# Track frame offsets:
#	150
#	17403
#	33290
#	52083
#	68158
#	85035
#	110030
#	126878
#	151178
#	181470
#	202855
#
# Disc length: 2989 seconds
#
# Revision: 0
# Processed by: cddbd v1.5.1PL0 Copyright (c) Steve Scherf et al.
# Submitted via: dBpowerAMP V4.0
#
DISCID=880bab0b
DTITLE=Big Otis - So in love with you
DYEAR=1999
DGENRE=Blues
TTITLE0=Wall to Wall
TTITLE1=Money talks
TTITLE2=So in love with you
TTITLE3=Midnight hour
TTITLE4=Funky Broadway
TTITLE5=Lovin you to long
TTITLE6=Hard to Handle
TTITLE7=Down home blues
TTITLE8=Lets stay together
TTITLE9=Wonderful World
TTITLE10=A little Tenderness
EXTD=Big Otis - So in love with you\nSo in love with you
EXTT0=
EXTT1=
EXTT2=
EXTT3=
EXTT4=
EXTT5=
EXTT6=
EXTT7=
EXTT8=
EXTT9=
EXTT10=
PLAYORDER=
